<svg width="377" height="60" viewBox="0 0 377 60" fill="none" xmlns="http://www.w3.org/2000/svg">
<path d="M36.3708 12.7417L23.6292 0L0 23.6292L36.3708 60L72.7417 23.6292L49.1125 0L36.3708 12.7417ZM36.3708 49.1128L10.8872 23.6292L23.6292 10.8875L36.3708 23.6292L49.0529 10.9471L61.7946 23.689L36.3708 49.1128Z" fill="#00B2A5"/>
<path d="M104.985 25.5436C104.866 24.3472 104.327 23.2704 103.43 22.5525C102.592 21.9543 101.336 21.5954 99.6015 21.5954C98.3453 21.5355 97.0889 21.715 95.8925 22.1936C95.1148 22.4927 94.5764 23.33 94.6362 24.1675C94.6362 25.005 95.1148 25.7828 95.8925 26.0819C97.0291 26.6801 98.2256 27.1586 99.5416 27.4577C102.114 28.1755 104.327 28.7738 106.122 29.3122C107.617 29.6711 109.053 30.3291 110.429 31.1068C111.446 31.705 112.224 32.6022 112.762 33.679C113.3 34.995 113.54 36.4307 113.48 37.8664C113.48 40.4985 112.283 42.9512 110.13 44.5066C107.916 46.2414 104.567 47.1386 100.2 47.1386C98.2256 47.1386 96.2514 46.8995 94.3371 46.4209C92.722 46.0022 91.2264 45.2843 89.8506 44.3272C88.6542 43.4897 87.6971 42.3531 86.9793 41.0371C86.3213 39.721 85.9622 38.2254 85.9023 36.7299H94.038C93.9782 38.0459 94.6364 39.3022 95.7132 40.02C97.0292 40.8575 98.5246 41.2164 100.08 41.1565C101.396 41.2164 102.712 40.9773 103.968 40.4389C104.925 40.1398 105.584 39.3022 105.584 38.2853C105.643 37.3281 105.225 36.4308 104.387 35.8924C103.251 35.2942 102.054 34.8754 100.738 34.6361C98.3452 34.1576 96.012 33.4398 93.679 32.6023C92.1835 32.0639 90.7479 31.2863 89.5515 30.2694C88.6542 29.5515 87.9364 28.5943 87.5775 27.4577C87.2186 26.3809 87.0392 25.1847 87.0392 24.0481C87.0392 22.9115 87.2783 21.8345 87.7568 20.8175C88.2354 19.7407 89.0132 18.8434 89.9703 18.1256C91.1667 17.2881 92.4828 16.6303 93.9185 16.2714C95.8926 15.7928 97.8667 15.5534 99.9006 15.5534C104.208 15.5534 107.318 16.4507 109.352 18.1855C111.326 19.9203 112.403 22.3132 112.642 25.4238L104.985 25.5436ZM158.166 46.3611V30.8077C158.166 25.9622 160.559 23.5693 165.404 23.5693C166.122 23.5693 166.84 23.6293 167.617 23.749V15.6732H166.601C165.763 15.6732 164.985 15.7328 164.208 15.7926C163.43 15.8525 162.652 16.0917 161.934 16.3908C161.157 16.6899 160.379 17.1686 159.721 17.707C158.944 18.365 158.226 19.2025 157.687 20.0998V16.5106H150.269V46.4209L158.166 46.3611ZM177.847 28.4747C177.907 26.6801 178.624 24.9453 179.821 23.6292C180.898 22.4926 182.393 21.8945 183.889 21.8945C184.666 21.8945 185.444 22.0139 186.162 22.313C186.88 22.5523 187.538 22.9711 188.076 23.5094C188.674 24.1077 189.153 24.8257 189.452 25.5436C189.811 26.4409 189.99 27.4577 190.05 28.4149L177.847 28.4747ZM198.246 33.4996C198.246 27.5175 197.049 23.0909 194.656 20.0998C192.264 17.1088 188.794 15.6732 184.188 15.6732C182.094 15.6134 180 15.9722 178.026 16.7498C176.291 17.4079 174.736 18.4249 173.48 19.8007C172.224 21.1766 171.267 22.7918 170.668 24.5864C170.01 26.6203 169.651 28.714 169.711 30.8676C169.711 41.7549 174.676 47.1386 184.666 47.1386C187.598 47.1984 190.529 46.3611 192.922 44.6263C195.315 42.8915 196.989 40.3791 197.767 37.5077H189.632C189.332 38.5247 188.674 39.4217 187.717 39.9601C186.7 40.5583 185.504 40.8574 184.307 40.8574C182.513 40.9173 180.778 40.1995 179.582 38.8835C178.325 37.388 177.608 35.4737 177.608 33.4996H198.246ZM219.721 34.9951C219.721 35.8924 219.542 36.73 219.123 37.5077C218.764 38.2854 218.226 39.0032 217.628 39.5416C216.97 40.1398 216.192 40.6182 215.354 40.9173C214.457 41.2762 213.5 41.4556 212.543 41.4556C209.971 41.4556 208.714 40.3193 208.714 38.1059C208.655 36.9693 209.133 35.8327 209.971 35.1149C210.808 34.4569 212.363 33.8585 214.637 33.4397C216.072 33.1406 217.209 32.9015 217.987 32.6622C218.645 32.4827 219.243 32.1237 219.721 31.705V34.9951ZM227.677 46.3611V27.4577C227.677 25.7827 227.498 24.0479 227.02 22.4328C226.601 21.0569 225.883 19.7407 224.866 18.7238C223.729 17.647 222.413 16.8695 220.918 16.4507C218.944 15.9123 216.97 15.6134 214.936 15.6732C212.902 15.6134 210.808 15.9123 208.834 16.4507C207.338 16.8695 205.963 17.5874 204.826 18.6043C203.809 19.5016 203.031 20.6383 202.553 21.9543C202.074 23.3302 201.835 24.7657 201.775 26.2014H209.133C209.253 25.005 209.791 23.8684 210.628 22.9711C211.406 22.1336 212.722 21.7747 214.577 21.7747C215.833 21.7149 217.149 22.0139 218.286 22.6121C219.123 23.0309 219.661 23.9284 219.661 24.8855C219.721 25.7828 219.362 26.6202 218.645 27.1586C217.987 27.6371 216.611 27.996 214.637 28.2951C212.662 28.5942 210.808 28.8934 209.133 29.2523C207.637 29.5514 206.142 30.0899 204.766 30.8676C203.57 31.5854 202.553 32.6024 201.895 33.8586C201.117 35.4738 200.758 37.2086 200.878 39.0032C200.818 41.2166 201.655 43.3701 203.271 44.9254C204.886 46.4209 207.398 47.1985 210.808 47.1985C212.662 47.2583 214.457 46.8993 216.132 46.2413C217.568 45.7029 218.824 44.8656 219.841 43.729C219.901 44.6263 220.08 45.5236 220.319 46.4209L227.677 46.3611ZM246.222 40.738C244.307 40.738 242.453 39.8405 241.376 38.2254C240.12 36.5504 239.522 34.3371 239.522 31.705C239.522 25.5435 241.795 22.4926 246.341 22.4328C250.768 22.4328 252.982 25.6632 252.982 32.1239C252.982 34.6961 252.323 36.73 251.067 38.3451C249.871 39.8407 248.076 40.738 246.222 40.738ZM260.339 46.3611V5.50366H252.563V20.3391C250.349 17.2284 247.358 15.6732 243.709 15.6732C241.915 15.6134 240.12 16.032 238.505 16.8097C237.009 17.5874 235.634 18.664 234.617 19.9801C233.54 21.4756 232.702 23.0909 232.224 24.8855C231.626 26.9194 231.386 29.0131 231.386 31.1068C231.326 33.38 231.685 35.653 232.343 37.8664C232.882 39.7208 233.839 41.3961 235.035 42.8916C236.112 44.2674 237.548 45.3441 239.103 46.062C240.718 46.7798 242.513 47.1984 244.308 47.1386C248.016 47.1386 250.828 45.6431 252.623 42.7119L252.683 46.3611H260.339ZM131.426 22.1337C133.34 22.1337 135.195 23.0311 136.271 24.6463C137.528 26.3213 138.126 28.5346 138.126 31.1667C138.126 37.3282 135.853 40.379 131.306 40.4389C126.88 40.4389 124.666 37.2084 124.666 30.7478C124.666 28.1755 125.324 26.1417 126.58 24.5265C127.777 22.9712 129.571 22.1337 131.426 22.1337ZM117.308 16.4507V57.3081H125.085V42.4727C127.298 45.5834 130.289 47.1386 133.939 47.1386C135.733 47.1984 137.528 46.7797 139.143 46.0021C140.638 45.2244 142.014 44.1477 143.031 42.8317C144.108 41.3362 144.945 39.7209 145.424 37.9263C146.022 35.8924 146.262 33.7987 146.262 31.705C146.321 29.4318 145.962 27.1587 145.304 24.9454C144.766 23.0909 143.809 21.4157 142.613 19.9202C141.536 18.5443 140.1 17.4677 138.545 16.7498C136.929 16.032 135.135 15.6134 133.34 15.6732C129.631 15.6732 126.82 17.1686 125.025 20.0998L124.965 16.4507H117.308ZM290.489 25.5436C290.31 22.4927 289.173 20.04 287.199 18.3052C285.225 16.5704 282.054 15.6732 277.747 15.6732C275.713 15.6134 273.739 15.8525 271.765 16.3908C270.33 16.7498 269.013 17.4079 267.817 18.2453C266.86 18.9632 266.082 19.8605 265.604 20.9373C265.125 21.9542 264.886 23.0309 264.886 24.1675C264.886 25.3041 265.065 26.5007 265.424 27.5774C265.843 28.6542 266.501 29.671 267.398 30.3888C268.655 31.4058 270.031 32.1837 271.526 32.7221C273.799 33.5596 276.192 34.2773 278.585 34.7559C279.841 34.9952 281.097 35.414 282.234 36.0122C283.012 36.5506 283.49 37.4479 283.43 38.405C283.43 39.422 282.772 40.2592 281.815 40.5583C280.619 41.0369 279.243 41.2763 277.927 41.2763C276.371 41.3361 274.876 40.9174 273.56 40.1398C272.483 39.4219 271.825 38.1657 271.885 36.8496H263.749C263.749 39.8407 265.245 42.6523 267.698 44.3871C269.073 45.3442 270.569 46.0621 272.184 46.4808C274.098 47.0192 276.072 47.2583 278.046 47.1985C282.413 47.1985 285.704 46.3012 287.977 44.5664C290.13 43.0111 291.327 40.5584 291.327 37.9263C291.387 36.4906 291.147 35.1148 290.609 33.7987C290.13 32.7219 289.293 31.8248 288.276 31.2265C286.96 30.4489 285.524 29.8507 283.969 29.4319C282.174 28.9534 280.02 28.2953 277.388 27.5774C276.132 27.2783 274.936 26.7996 273.739 26.2014C272.962 25.8425 272.483 25.065 272.483 24.2873C272.423 23.4498 272.962 22.6121 273.739 22.313C274.936 21.8943 276.192 21.655 277.448 21.7148C279.123 21.7148 280.439 22.014 281.277 22.672C282.174 23.4497 282.712 24.5265 282.832 25.663L290.489 25.5436ZM322.254 46.3611V25.1846C322.254 22.1936 321.297 19.8604 319.383 18.1855C317.468 16.5105 314.956 15.6732 311.905 15.6732C309.991 15.6732 308.136 16.1516 306.461 16.9891C305.743 17.4078 305.026 17.8864 304.427 18.4846C303.889 19.023 303.41 19.6212 303.111 20.3391V5.50366H295.215V46.3611H303.111V29.1924C303.111 28.2353 303.231 27.2783 303.53 26.381C303.769 25.5435 304.188 24.7659 304.726 24.0481C305.265 23.39 305.923 22.8516 306.641 22.4927C307.478 22.0739 308.376 21.8945 309.273 21.8945C311.068 21.8945 312.383 22.3133 313.221 23.1508C313.999 23.9882 314.417 25.5435 314.417 27.8167V46.3611H322.254ZM348.455 46.3611V30.8077C348.455 25.9622 350.848 23.5693 355.694 23.5693C356.411 23.5693 357.129 23.6293 357.907 23.749V15.6732H356.89C356.052 15.6732 355.275 15.7328 354.497 15.7926C353.719 15.8525 352.942 16.0917 352.224 16.3908C351.446 16.6899 350.669 17.1686 350.011 17.707C349.233 18.365 348.515 19.2025 347.977 20.0998V16.5106H340.559V46.4209L348.455 46.3611ZM376.691 40.3191H373.52C371.905 40.3191 370.709 39.7807 369.991 38.7637C369.213 37.4477 368.854 35.8924 368.914 34.337V22.7319H374.836V15.9723H368.914V5.62313H361.137V35.1745C361.137 36.7298 361.377 38.2853 361.795 39.7808C362.214 41.2165 362.932 42.5325 363.949 43.6092C365.026 44.7458 366.282 45.6431 367.777 46.2413C369.572 46.9591 371.486 47.2583 373.4 47.1985H376.691V40.3191ZM327.398 46.3611H335.295V16.4507H327.398V46.3611ZM327.398 5.50366H335.295V12.8615H327.398V5.50366Z" fill="#FF4D5A"/>
</svg>
