<svg width="55" height="55" viewBox="0 0 55 55" fill="none" xmlns="http://www.w3.org/2000/svg">
<path d="M40.7401 55C39.6071 54.7432 38.5867 54.3001 37.8095 53.3803C37.019 52.4454 36.6968 51.3612 36.6968 50.1678C36.6917 44.238 36.6817 38.3081 36.7001 32.38C36.7085 29.4914 38.6823 27.5612 41.5709 27.5562C44.4292 27.5512 47.2859 27.5797 50.1442 27.5478C52.6316 27.521 54.592 29.1859 54.9277 31.4317C54.9378 31.4988 54.9747 31.5626 54.9999 31.628C54.9999 38.0614 54.9999 44.4931 54.9999 50.9265C54.6877 51.6717 54.4712 52.4773 54.0449 53.1487C53.3399 54.2598 52.1835 54.7482 50.9264 55C47.5309 55 44.1355 55 40.7401 55Z" fill="#FF6666"/>
<path d="M45.8257 9.24975C45.4547 9.24975 45.1358 9.24975 44.8153 9.24975C39.1691 9.24975 33.5229 9.22793 27.8784 9.25646C23.9022 9.2766 20.9801 11.0658 19.2211 14.6559C18.5715 15.9802 18.4071 17.4136 18.4087 18.8771C18.4171 26.1128 18.4121 33.3484 18.4121 40.5858C18.4121 40.7956 18.4121 41.0054 18.4121 41.279C18.1503 41.279 17.9421 41.279 17.734 41.279C13.4809 41.2806 9.22948 41.2806 4.97638 41.2806C2.09286 41.2806 0.10897 39.3236 0.107292 36.4518C0.102257 25.9466 0.102257 15.4397 0.107292 4.93454C0.110649 2.08123 2.07775 0.110771 4.92602 0.109093C16.9687 0.104057 29.0096 0.104057 41.0522 0.109093C43.3718 0.110771 45.0737 1.38972 45.6897 3.57334C45.7703 3.86203 45.8173 4.16918 45.8206 4.46962C45.8324 6.03558 45.8257 7.6049 45.8257 9.24975Z" fill="#FF6666"/>
<path d="M32.1365 50.3625C30.3121 50.3625 28.5682 50.4968 26.8545 50.329C24.7666 50.1242 22.9573 48.2897 22.9673 45.5102C22.9858 40.1678 22.9724 34.8254 22.9724 29.483C22.9724 25.9097 22.9724 22.3363 22.9724 18.763C22.9724 17.6485 23.204 16.6045 23.8938 15.6965C24.8354 14.4595 26.1009 13.8419 27.635 13.8368C33.6739 13.8217 39.7129 13.815 45.7518 13.8368C48.3769 13.8469 50.2936 15.7016 50.3977 18.3165C50.4581 19.8456 50.4094 21.378 50.4094 22.9708C50.1509 22.9708 49.9411 22.9691 49.733 22.9708C46.6783 22.9876 43.6202 22.9221 40.5706 23.0446C36.44 23.2091 32.8146 26.5945 32.2775 30.6949C32.1281 31.8395 32.1466 33.0094 32.1432 34.1692C32.1298 39.3504 32.1382 44.5317 32.1382 49.713C32.1365 49.9245 32.1365 50.1343 32.1365 50.3625Z" fill="#336699"/>
</svg>
