<svg width="180" height="30" viewBox="0 0 180 30" fill="none" xmlns="http://www.w3.org/2000/svg">
<g style="mix-blend-mode:difference">
<path fill-rule="evenodd" clip-rule="evenodd" d="M59.0164 17.2392C59.0164 19.7859 56.8796 21.6469 53.9288 21.6469C50.978 21.6469 48.8412 19.7859 48.8412 17.2392V7.83606H46.8062V17.3371C46.8062 20.6674 49.757 23.5079 53.9288 23.5079C58.1007 23.5079 61.0515 20.5695 61.0515 17.3371V7.83606H59.0164V17.2392ZM75.7038 7.83606H70.2092V23.5079H75.7038C80.2827 23.5079 83.437 20.4715 83.437 15.672C83.437 10.9704 80.2827 7.83606 75.7038 7.83606ZM75.5003 21.549H72.2443V9.79505H75.5003C78.9599 9.79505 81.402 12.0479 81.402 15.672C81.402 19.59 78.8582 21.451 75.5003 21.549ZM120.068 21.8428C116.405 21.8428 113.963 19.1982 113.963 15.672C113.963 12.1458 116.507 9.59915 120.068 9.59915C122.917 9.59915 124.647 11.1663 124.647 11.1663L125.461 9.79505C125.461 9.79505 123.629 7.93401 119.864 7.93401C114.98 7.93401 111.928 11.4602 111.928 15.672C111.928 19.9818 115.082 23.6059 120.068 23.6059C123.934 23.6059 125.868 21.0592 125.868 21.0592L124.748 19.8838C124.647 19.7859 123.12 21.8428 120.068 21.8428ZM135.331 7.83606H137.366V23.5079H135.331V7.83606ZM146.524 9.79505H151.611V23.5079H153.646V9.79505H158.734V7.83606H146.524V9.79505ZM177.863 7.83606L172.979 14.9864L167.993 7.83606H165.856L171.962 16.5535V23.5079H173.997V16.5535L180 7.83607L177.863 7.83606ZM96.5631 7.83607L90.2544 23.508H92.2895L94.0193 19.0023L100.633 17.631L102.872 23.5079H104.907L98.6999 7.83606H96.5631L96.5631 7.83607ZM94.6298 17.1412L97.6824 9.893H97.7841L100.328 16.0638L94.6298 17.1412V17.1412Z" fill="#B7A89C"/>
<path fill-rule="evenodd" clip-rule="evenodd" d="M29.7131 0.5L30.7377 1V14C30.7377 19.5519 27.7769 22.6957 24.5951 24.0999L24.5998 24.1L16.7914 28.4886C16.7312 28.5231 16.6708 28.5571 16.6101 28.5905L16.5216 28.6402L16.5234 28.6377C14.839 29.5459 12.9966 30 11.2705 30C6.14754 30 0 26 0 18V6L2.04918 7V18C2.04918 26 8.19672 28 11.2705 28C13.1749 28 16.2592 27.2323 18.3304 24.7455C14.5305 23.8726 10.2459 20.6787 10.2459 14V2.2L2.04918 7L0 6L10.2459 0L11.2705 0.5L12.2951 1V14C12.2951 20.94 16.9214 22.6121 19.4852 22.9334C20.1084 21.6216 20.4918 19.9979 20.4918 18V5L22.541 6V18C22.541 19.8526 22.2113 21.4908 21.641 22.9144C24.2297 22.5492 28.6885 20.8131 28.6885 14V2.25L22.541 6L20.4918 5L28.6885 0L29.7131 0.5Z" fill="#E33201"/>
</g>
</svg>
