<svg width="101" height="30" viewBox="0 0 101 30" fill="none" xmlns="http://www.w3.org/2000/svg">
<g style="mix-blend-mode:difference" clip-path="url(#clip0_1853_335)">
<path d="M27.4767 18.9465C25.8452 18.9465 24.3164 18.2557 22.9273 17.1312L23.2656 15.5437L23.2803 15.4849C23.5815 13.7947 24.5369 10.9577 27.4767 10.9577C29.6814 10.9577 31.4748 12.751 31.4748 14.9557C31.4673 17.1532 29.6742 18.9465 27.4767 18.9465ZM27.4767 6.90825C23.7211 6.90825 20.8109 9.34825 19.6277 13.361C17.8197 10.649 16.4527 7.39335 15.6517 4.65198H11.6095V15.1688C11.6095 17.2414 9.91913 18.9316 7.84659 18.9316C5.77404 18.9316 4.08385 17.2414 4.08385 15.1688V4.65198H0.0413059V15.1688C0.0266 19.4757 3.53228 23.0106 7.83894 23.0106C12.1458 23.0106 15.6515 19.4757 15.6515 15.1688V13.4051C16.4377 15.0439 17.4005 16.6975 18.5691 18.1675L16.0923 29.8086H20.2301L22.0232 21.3643C23.596 22.3712 25.404 23.0034 27.4766 23.0034C31.9081 23.0034 35.5167 19.3728 35.5167 14.941C35.5167 10.5167 31.9081 6.90825 27.4766 6.90825H27.4767Z" fill="#760BA1"/>
<path d="M47.8561 7.364L50.4651 17.8809L53.3388 7.364H56.7635L52.3466 22.5624H48.9217L46.21 11.9793L43.5053 22.555H40.0806L35.6633 7.35675H39.0882L41.9617 17.8736L44.5708 7.35675H47.8559V7.3642L47.8561 7.364ZM64.958 6.90832C60.5117 6.90832 56.9105 10.5167 56.9105 14.9558C56.9105 19.4022 60.519 23.0034 64.958 23.0034C69.4044 23.0034 73.0129 19.4022 73.0129 14.9558C73.0129 10.5095 69.4044 6.90832 64.958 6.90832ZM64.958 19.6962C62.3417 19.6962 60.225 17.5795 60.225 14.9632C60.225 12.3467 62.349 10.2303 64.958 10.2303C67.5744 10.2303 69.6909 12.3467 69.6909 14.9632C69.6909 17.5722 67.5744 19.6962 64.958 19.6962ZM82.7948 10.7667C80.4946 10.7667 78.6352 12.6334 78.6352 14.9264V22.555H75.1882V7.364H78.6352V9.70106C78.6352 9.70106 80.105 7.35655 83.1256 7.35655H84.1838V10.7667H82.7948ZM94.3628 14.3679C96.8099 12.9862 98.4711 10.3624 98.4711 7.35655H95.024C95.024 9.89204 92.9664 11.9499 90.4309 11.9499H89.9677V0.0292969H86.5211V22.5548H89.9677V15.3967H90.3795C90.7175 15.3967 91.1585 15.6173 91.357 15.8891L96.2514 22.555H100.382L94.3628 14.3679Z" fill="white"/>
</g>
<defs>
<clipPath id="clip0_1853_335">
<rect width="100.402" height="30" fill="white"/>
</clipPath>
</defs>
</svg>
