<svg width="23" height="20" viewBox="0 0 23 20" fill="none" xmlns="http://www.w3.org/2000/svg">
<path d="M6.20801 0.5C6.86401 0.499825 7.51444 0.612695 8.13086 0.833008L8.39355 0.93457C8.99984 1.18563 9.55775 1.53881 10.043 1.97852L10.2461 2.17188L11.5381 3.46387L11.8916 3.11035L12.8252 2.17773C13.8343 1.20115 15.1659 0.633233 16.5625 0.576172L16.8428 0.571289C18.2469 0.582857 19.5943 1.11111 20.6299 2.0498L20.832 2.24316C21.8912 3.30232 22.4916 4.73558 22.5039 6.2334C22.5154 7.63753 22.0095 8.99312 21.0879 10.0439L20.9033 10.2441L11.7295 19.4209H11.7285C11.7036 19.4459 11.6742 19.4659 11.6416 19.4795C11.6089 19.4931 11.5735 19.5 11.5381 19.5C11.5027 19.5 11.4673 19.4931 11.4346 19.4795C11.4183 19.4727 11.4032 19.4638 11.3887 19.4541L11.3477 19.4209H11.3467L2.17188 10.2461C1.37342 9.4477 0.829678 8.42971 0.609375 7.32227C0.402932 6.2841 0.489744 5.21036 0.857422 4.2207L0.93457 4.02441C1.33961 3.0466 2.00792 2.20162 2.86328 1.58301L3.03711 1.46191C3.97567 0.834836 5.07926 0.500158 6.20801 0.5Z" fill="#FF6666" stroke="#F9F9F9"/>
</svg>
